<svg id="Capa_1" data-name="Capa 1" xmlns="http://www.w3.org/2000/svg" viewBox="0 0 940.37 655.48"><defs><style>.cls-1{fill:#88b99d;stroke:#88b99d;stroke-width:0.75px;}.cls-1,.cls-2{stroke-linecap:round;stroke-linejoin:round;}.cls-2{fill:#83b799;stroke:#83b799;stroke-width:1.5px;}.cls-3{fill:#fff;}.cls-4{fill:#84a28c;}</style></defs><title>Cameda</title><path class="cls-1" d="M191.07,734.91a68.38,68.38,0,0,0-21.63-16.28,60.26,60.26,0,0,0-25.4-5.26,57,57,0,0,0-40.37,17.19A56.54,56.54,0,0,0,91.5,749.35a62.57,62.57,0,0,0-4,22.93,64.86,64.86,0,0,0,2.41,18.16A52,52,0,0,0,97.1,805.7,58.91,58.91,0,0,0,118,824.29a58.7,58.7,0,0,0,51.91.92,65.82,65.82,0,0,0,21.15-16.71v22.31a80.52,80.52,0,0,1-47.71,15.45,72.49,72.49,0,0,1-21.82-3.33,73.92,73.92,0,0,1-19.9-9.71,71.83,71.83,0,0,1-31.77-60.74,78.11,78.11,0,0,1,5.45-29.7A71.65,71.65,0,0,1,92,718.49a72.64,72.64,0,0,1,24-15.6,77.72,77.72,0,0,1,28.68-5.17,76.66,76.66,0,0,1,23.76,3.72A86.12,86.12,0,0,1,191.07,713Z" transform="translate(-69.49 -192.9)"/><path class="cls-1" d="M294.14,695.5l64.32,147H340.21l-18.35-43.37H266.62L248.27,842.5H230Zm0,37.19-22.5,52h45Z" transform="translate(-69.49 -192.9)"/><path class="cls-1" d="M468.58,848,424.64,746.4l-17.77,96.1H390.45l28.68-147,49.45,117L518,695.5l28.69,147H530.3l-18-96.1Z" transform="translate(-69.49 -192.9)"/><path class="cls-1" d="M598.11,842.5V701.1h74.56v15.36H614.92V757h57.75v15.65H614.92v54.18h57.75V842.5Z" transform="translate(-69.49 -192.9)"/><path class="cls-1" d="M730.83,842.5V701.1H758q30.13,0,42.45,3A57.4,57.4,0,0,1,822,714.33a59.23,59.23,0,0,1,18.44,24q6.28,14.58,6.28,33.61t-6.23,33.46A58.52,58.52,0,0,1,822,829.26a57.48,57.48,0,0,1-21.11,10.19q-11.82,3-36.84,3H730.83Zm17-15.84h10.72q26.09,0,36.12-2.27a39.47,39.47,0,0,0,16.71-7.78,45.68,45.68,0,0,0,13.23-18.69,70.64,70.64,0,0,0,4.54-26.22q0-14.87-4.49-26.12A45.87,45.87,0,0,0,811.38,727a39.64,39.64,0,0,0-17-8q-10.27-2.37-35.88-2.37H747.83Z" transform="translate(-69.49 -192.9)"/><path class="cls-1" d="M945.16,695.5l64.32,147H991.23l-18.35-43.37H917.64L899.29,842.5H881Zm0,37.19-22.5,52h45Z" transform="translate(-69.49 -192.9)"/><polygon class="cls-2" points="329.23 405.67 404.86 388.13 459.08 335.15 385.05 351.68 329.23 405.67"/><polygon class="cls-2" points="247.91 288.69 349.45 337.67 459.01 327.05 360.2 278.38 247.91 288.69"/><polygon class="cls-2" points="275.49 101.86 336.44 234.59 454.6 314.45 396.12 184.28 275.49 101.86"/><polygon class="cls-2" points="611.12 405.67 535.49 388.13 481.28 335.15 555.31 351.68 611.12 405.67"/><polygon class="cls-2" points="692.44 288.69 590.91 337.67 481.34 327.05 580.15 278.38 692.44 288.69"/><polygon class="cls-2" points="664.86 101.86 603.92 234.59 485.76 314.45 544.24 184.28 664.86 101.86"/><polygon class="cls-2" points="469.96 0.75 515.76 166.27 470.05 327.63 423.97 166.27 469.96 0.75"/><path class="cls-2" d="M532.78,545.6v62.11s-5.8,10.78,6.63,10.78h1.64c12.43,0,6.63-10.78,6.63-10.78V545.6" transform="translate(-69.49 -192.9)"/><polygon class="cls-3" points="380.53 255.1 380.53 324.09 435.38 324.09 435.38 378.94 504.35 378.94 504.35 324.09 559.2 324.09 559.2 255.1 504.35 255.1 504.35 200.25 435.38 200.25 435.38 255.1 380.53 255.1"/><polygon class="cls-4" points="433.62 275.6 433.62 303.59 455.87 303.59 455.87 325.84 483.85 325.84 483.85 303.59 506.11 303.59 506.11 275.6 483.85 275.6 483.85 253.35 455.87 253.35 455.87 275.6 433.62 275.6"/></svg>